<?xml version="1.0" encoding="utf-8"?>
<!-- Generator: Adobe Illustrator 18.1.0, SVG Export Plug-In . SVG Version: 6.00 Build 0)  -->
<svg version="1.1" id="Layer_1" xmlns="http://www.w3.org/2000/svg" xmlns:xlink="http://www.w3.org/1999/xlink" x="0px" y="0px"
	 viewBox="0 0 792 612" enable-background="new 0 0 792 612" xml:space="preserve">
<g id="bg">
</g>
<g id="animation_bits">
</g>
<g id="bridge" display="none">
</g>
<g id="Layer_2">
</g>
<g id="zigzag">
</g>
<g id="scrus">
</g>
<g id="column">
</g>
<g id="water">
</g>
<g id="player_controls">
</g>
<g id="lights_ropes">
</g>
<g id="lights">
</g>
<g id="upper_lights">
	<g id="arrows">
	</g>
	<g id="iohone">
	</g>
	<path fill="#F2F2F2" d="M598.7,148.6h-52.2V185c0,23.9-19.6,43.5-43.5,43.5h-15.3c-23.9,0-43.5-19.6-43.5-43.5v-36.4H336.5V185
		c0,23.9-19.6,43.5-43.5,43.5h-15.3c-23.9,0-43.5-19.6-43.5-43.5v-36.4h-31.7c-15.2,0-32,7.5-32,22.7v92.4h451v-0.1v-92.3
		C621.4,156.4,613.9,148.6,598.7,148.6z"/>
	<rect x="205.4" y="299.8" fill="none" stroke="#F2F2F2" stroke-width="20" stroke-miterlimit="10" width="65.9" height="65.9"/>
	<rect x="306.9" y="299.8" fill="none" stroke="#F2F2F2" stroke-width="20" stroke-miterlimit="10" width="65.9" height="65.9"/>
	<rect x="411.5" y="299.8" fill="none" stroke="#F2F2F2" stroke-width="20" stroke-miterlimit="10" width="65.9" height="65.9"/>
	<rect x="520.7" y="299.8" fill="none" stroke="#F2F2F2" stroke-width="20" stroke-miterlimit="10" width="65.9" height="65.9"/>
	<rect x="205.4" y="398.5" fill="none" stroke="#F2F2F2" stroke-width="20" stroke-miterlimit="10" width="65.9" height="65.9"/>
	<rect x="306.9" y="398.5" fill="none" stroke="#F2F2F2" stroke-width="20" stroke-miterlimit="10" width="65.9" height="65.9"/>
	<rect x="411.5" y="398.5" fill="#F2F2F2" width="65.9" height="65.9"/>
	<rect x="520.7" y="398.5" fill="none" stroke="#F2F2F2" stroke-width="20" stroke-miterlimit="10" width="65.9" height="65.9"/>
	<rect x="205.4" y="497.3" fill="none" stroke="#F2F2F2" stroke-width="20" stroke-miterlimit="10" width="65.9" height="65.9"/>
	<rect x="306.9" y="497.3" fill="none" stroke="#F2F2F2" stroke-width="20" stroke-miterlimit="10" width="65.9" height="65.9"/>
	<rect x="411.5" y="497.3" fill="none" stroke="#F2F2F2" stroke-width="20" stroke-miterlimit="10" width="65.9" height="65.9"/>
	<rect x="520.7" y="497.3" fill="none" stroke="#F2F2F2" stroke-width="20" stroke-miterlimit="10" width="65.9" height="65.9"/>
	<path fill="none" stroke="#F2F2F2" stroke-width="20" stroke-miterlimit="10" d="M594.4,147.7h-47.9V185
		c0,23.9-19.6,43.5-43.5,43.5h-15.3c-23.9,0-43.5-19.6-43.5-43.5v-37.3H336.5V185c0,23.9-19.6,43.5-43.5,43.5h-15.3
		c-23.9,0-43.5-19.6-43.5-43.5v-37.3h-36.3c-15.2,0-27.4,12.4-27.4,27.4v396.3c0,15.2,12.4,27.4,27.4,27.4h396.3
		c15.2,0,27.4-12.1,27.7-27V175.1C621.8,159.9,609.3,147.7,594.4,147.7z"/>
</g>
<path fill="#FFFFFF" d="M290.7,199.4h-10.3c-10,0-18.1-8.8-18.1-19.7v-45.8c0-10.9,8.1-19.7,18.1-19.7h10.3c10,0,18.1,8.8,18.1,19.7
	v45.8C308.8,190.5,300.7,199.4,290.7,199.4z"/>
<path fill="#FFFFFF" d="M500.2,199.4h-10.3c-10,0-18.1-8.8-18.1-19.7v-45.8c0-10.9,8.1-19.7,18.1-19.7h10.3c10,0,18.1,8.8,18.1,19.7
	v45.8C518.3,190.5,510.2,199.4,500.2,199.4z"/>
<path fill="none" d="M293,228.5h-15.3c-23.9,0-43.5-19.6-43.5-43.5v-63.8c0-23.9,19.6-43.5,43.5-43.5H293
	c23.9,0,43.5,19.6,43.5,43.5V185C336.5,208.9,316.9,228.5,293,228.5z"/>
</svg>
