<?xml version="1.0" encoding="utf-8"?>
<!-- Generator: Adobe Illustrator 18.1.0, SVG Export Plug-In . SVG Version: 6.00 Build 0)  -->
<svg version="1.1" id="Layer_1" xmlns="http://www.w3.org/2000/svg" xmlns:xlink="http://www.w3.org/1999/xlink" x="0px" y="0px"
	 viewBox="0 0 792 612" enable-background="new 0 0 792 612" xml:space="preserve">
<g id="bg">
</g>
<g id="animation_bits">
</g>
<g id="bridge" display="none">
</g>
<g id="Layer_2">
</g>
<g id="zigzag">
</g>
<g id="scrus">
</g>
<g id="column">
</g>
<g id="water">
</g>
<g id="player_controls">
</g>
<g id="lights_ropes">
</g>
<g id="lights">
</g>
<g id="upper_lights">
	<g id="arrows">
	</g>
	<g id="iohone">
	</g>
	<circle fill="none" stroke="#CDCDCD" stroke-width="25" stroke-miterlimit="10" cx="396" cy="383.3" r="216"/>
	<g>
		<g>
			<line fill="none" stroke="#CDCDCD" stroke-width="25" stroke-miterlimit="10" x1="394.5" y1="168.9" x2="394.5" y2="424.2"/>
			<g>
				<path fill="#CDCDCD" stroke="#CDCDCD" stroke-miterlimit="10" d="M324.4,323.1c3.5-2.2,8.2-1.2,10.4,2.2l61.1,96.1l61.2-96.1
					c2.2-3.5,7-4.4,10.4-2.2c3.5,2.2,4.4,7,2.2,10.4l-67.5,105.9c-1.2,2.2-3.8,3.5-6.3,3.5s-5-1.2-6.3-3.5l-67.5-105.9
					c-0.6-1.2-1.2-2.5-1.2-4.1C321,326.9,322.2,324.6,324.4,323.1z"/>
			</g>
		</g>
	</g>
	<line fill="none" stroke="#CDCDCD" stroke-width="25" stroke-miterlimit="10" x1="258.5" y1="548.8" x2="532" y2="548.8"/>
</g>
</svg>
